# xmcd
#
# Track frame offsets:
#	187
#	10891
#	20194
#	35750
#	49490
#	61774
#	72037
#	86001
#	98229
#	111718
#
# Disc length: 1641 seconds
#
# Revision: 2
# Processed by: cddbd v1.5.2PL0 Copyright (c) Steve Scherf et al.
# Submitted via: EZCDAudioConverter 2.1.3.1
#
DISCID=8d06670a
DTITLE=The Kendalls - Cryin' Time
DYEAR=1997
DGENRE=Country
TTITLE0=The Kendalls - You'd Make An Angel Want To Cheat
TTITLE1=The Kendalls - Blue, Blue Day
TTITLE2=The Kendalls - Just Like Real People
TTITLE3=The Kendalls - Heartaches By the Number
TTITLE4=The Kendalls - Curtain In the Window
TTITLE5=The Kendalls - I Had a Lovely Time
TTITLE6=The Kendalls - Cryin' Time
TTITLE7=The Kendalls - It Don't Feel Like Sinnin' To Me
TTITLE8=The Kendalls - Once More
TTITLE9=Temporarily Out of Order
EXTD=
EXTT0=
EXTT1=
EXTT2=
EXTT3=
EXTT4=
EXTT5=
EXTT6=
EXTT7=
EXTT8=
EXTT9=
PLAYORDER=
